<?xml version="1.0" encoding="utf-8"?>
<!-- Uploaded to: SVG Repo, www.svgrepo.com, Generator: SVG Repo Mixer Tools -->
<svg width="800px" height="800px" viewBox="0 0 1024 1024" class="icon"  version="1.1" xmlns="http://www.w3.org/2000/svg"><path d="M672 672v-160H352v160c-159.072 0-352 96.928-352 256a96 96 0 0 0 96 96h832a96 96 0 0 0 96-96c0-159.072-192.928-256-352-256z" fill="#EACF60" /><path d="M640 32h-256a128 128 0 0 0-128 128v160c0 176.704 114.624 320 256 320s256-143.296 256-320V160a128 128 0 0 0-128-128z" fill="#EACF60" /><path d="M672 612.512v-42.944C628.16 613.568 572.608 640 512 640s-116.16-26.432-160-70.432v42.944C397.824 650.016 452.8 672 512 672s114.176-21.984 160-59.488z" fill="" /><path d="M672 672c0 70.688-71.616 128-160 128s-160-57.312-160-128c-159.072 0-352 96.928-352 256a96 96 0 0 0 96 96h832a96 96 0 0 0 96-96c0-159.072-192.928-256-352-256z" fill="#E6E6E6" /><path d="M794.08 119.2C775.968 50.72 714.176 0 640 0h-256C309.824 0 248.032 50.72 229.92 119.2 226.304 128.16 224 140.992 224 160c0 128 32 192 32 192h64L288 160s0-64 64-64 64 64 160 64 96-64 160-64 64 64 64 64l-32 192h64s32-64 32-192c0-19.008-2.304-31.84-5.92-40.8z" fill="#434854" /><path d="M736 368a80 32 90 1 0 64 0 80 32 90 1 0-64 0Z" fill="#EACF60" /><path d="M224 368a80 32 90 1 0 64 0 80 32 90 1 0-64 0Z" fill="#EACF60" /><path d="M544 448c-32 0-32 32-32 32 0 32 32 32 32 32s64 0 96-32c-64 0-64-32-96-32zM480 448c-32 0-32 32-96 32 32 32 96 32 96 32s32 0 32-32c0 0 0-32-32-32z" fill="#434854" /><path d="M672 608l64 68.96L512 864v-128z" fill="#E6E6E6" /><path d="M672 608l64 68.96L512 864v-128zM352 608l-64 68.96L512 864v-128z" fill="#E6E6E6" /><path d="M843.328 707.072a464.128 464.128 0 0 0-108.32-30.176L704 1024h198.752a1229.344 1229.344 0 0 1-59.424-316.928zM190.304 703.2A1309.248 1309.248 0 0 1 134.752 1024H320l-28.96-347.488a462.72 462.72 0 0 0-100.736 26.688z" fill="#434854" /><path d="M735.04 676.992c-1.344-0.224-2.688-0.544-4.032-0.704l-218.496 187.328-217.856-187.328c-1.312 0.192-2.688 0.512-4 0.704l2.304 25.888L512 895.168V896l0.512-0.448 0.448 0.448v-0.832l219.744-192.288 2.336-25.888z" fill="" /><path d="M544 832a32 32 0 1 1-64 0v-64a32 32 0 1 1 64 0v64zM384 769.696V832c0 17.696 16 36.992 32 32l64-32v-64l-64-30.304c-16-8-32 14.304-32 32zM640 769.696V832c0 17.696-16 36.992-32 32l-64-32v-64l64-30.304c16-8 32 14.304 32 32z" fill="#434854" /><path d="M544 768v64l32 16v-95.168zM448 848l32-16v-64l-32-15.168z" fill="" /></svg>