<?xml version="1.0" encoding="iso-8859-1"?>
<!-- Uploaded to: SVG Repo, www.svgrepo.com, Generator: SVG Repo Mixer Tools -->
<svg fill="#000000" height="800px" width="800px" version="1.1" id="Layer_1" xmlns="http://www.w3.org/2000/svg" xmlns:xlink="http://www.w3.org/1999/xlink" 
	 viewBox="0 0 472.615 472.615" xml:space="preserve">
<g>
	<g>
		<polygon points="83.221,46.457 83.221,134.872 409.085,134.872 409.085,359.051 472.615,359.051 472.615,46.457 		"/>
	</g>
</g>
<g>
	<g>
		<polygon points="258.802,252.126 138.059,372.869 102.637,337.447 13.919,426.159 389.395,426.159 389.395,382.727 		"/>
	</g>
</g>
<g>
	<g>
		<path d="M0,154.563V412.24l102.637-102.631l35.422,35.423l120.743-120.743l130.593,130.601V154.563H0z M83.082,251.715
			c-15.719,0-28.462-12.744-28.462-28.465c0-15.719,12.743-28.463,28.462-28.463c15.719,0,28.462,12.744,28.462,28.463
			C111.544,238.972,98.801,251.715,83.082,251.715z"/>
	</g>
</g>
</svg>